<svg height="512" viewBox="0 0 61 50" width="512" xmlns="http://www.w3.org/2000/svg"><g id="Page-1" fill="none" fill-rule="evenodd"><g id="006---Watermelon" fill="rgb(0,0,0)" fill-rule="nonzero"><path id="Shape" d="m13.2 43.945c12.981536 9.6588467 31.2937932 7.2237156 41.3-5.492.3377886-.4220314.4864882-.9647308.411-1.5-.0724051-.5407391-.3610856-1.02897-.8-1.353l-4.869-3.59c-.2875988-.2120371-.6664715-.2545354-.9939005-.1114861-.3274289.1430493-.5536698.4499136-.5935.805-.0398301.3550865.1128017.704449.4004005.9164861l4.879 3.584c-9.4084173 11.6787403-26.3479918 13.8709041-38.4193934 4.9718842-12.07140161-8.8990199-14.98786153-25.7290237-6.6146066-38.1708842l13.53 9.98c.4445892.327781 1.070719.2330892 1.3985-.2115s.2330892-1.070719-.2115-1.3985l-13.523-9.975c-.43397046-.3286288-.98314581-.4661659-1.52078106-.38086891-.53763526.085297-1.01727373.38605763-1.32821894.83286891-9.1961367 13.3201079-6.1122505 31.5409757 6.955 41.093z"/><path id="Shape" d="m15.568 40.728c10.2500489 7.6196644 24.5253108 6.6261153 33.621-2.34.3946075-.3865993.4010993-1.0198925.0145-1.4145s-1.0198925-.4010993-1.4145-.0145c-8.4128733 8.2431216-21.5641676 9.1632067-31.0428719 2.1718079-9.4787042-6.9913987-12.48328009-19.8278944-7.0921281-30.2998079.17887533-.31901356.16932425-.71023116-.0249053-1.02013585-.19422956-.30990468-.5421495-.4890531-.9072332-.46714596-.36508371.02190714-.68908437.24137469-.8448615.57228181-5.88205955 11.3369843-2.61628001 25.2697314 7.691 32.812z"/><path id="Shape" d="m18.052 32.308c-.4979476.663295-.7346302 1.4865233-.665 2.313.0633812.8282069.4824724 1.588334 1.149 2.084.4896545.3589725 1.0818685.5507671 1.689.547 1.0537533-.0148779 2.0383512-.527388 2.655-1.382.776-1.053 2.077-4.371.405-5.6-.513-.379-1.459-.649-3.049.222-.8409436.4549272-1.5832742 1.0721764-2.184 1.816zm1.609 1.187c.6251477-.761734 1.4670004-1.3155294 2.414-1.588.0206936.9850078-.2582866 1.9530692-.8 2.776-.3197367.5326404-1.0046978.7150605-1.547.412-.2028757-.159805-.3282957-.3982848-.345-.656-.0258291-.3380685.0730672-.6738889.278-.944z"/><path id="Shape" d="m28.655 40.673c.8263146.0933823 1.6521053-.1795672 2.26-.747.6126448-.5584521.9987714-1.3225202 1.085-2.147.145-1.3-.387-4.823-2.45-5.056-.648-.074-1.592.17-2.53 1.717-.5008658.8155824-.8349798 1.7224148-.983 2.668-.0995992.8232689.1072058 1.6544042.581 2.335.4686681.6858224 1.2118364 1.1345691 2.037 1.23zm.667-5.924c.5098741.8434864.7508913 1.8222043.691 2.806-.0311611.3379021-.1860819.6523734-.435.883-.184712.1828592-.4413671.2737885-.7.248-.2559764-.0384543-.4835537-.1838711-.626-.4-.1907032-.2806399-.271501-.6216281-.227-.958.1615703-.9710502.6138008-1.8702812 1.297-2.579z"/><path id="Shape" d="m40.854 34.871c-.523-1.2-2.735-3.983-4.651-3.153s-1.371 4.355-.849 5.553c.3264774.761514.9210645 1.376739 1.671 1.729.3925576.1840783.8204325.2806402 1.254.283.3875987-.0001106.7709773-.0804635 1.126-.236 1.5499444-.7575816 2.1972836-2.6245454 1.449-4.179zm-2.254 2.346c-.2397102.0951729-.508473.0846403-.74-.029-.305377-.1478776-.5459023-.4026352-.676-.716-.3476292-.9226491-.4062254-1.9292471-.168-2.886.8625319.4762917 1.5599998 1.203402 2 2.085.3028288.542962.1184106 1.2283236-.416 1.546z"/><path id="Shape" d="m13.7 14.841c-.8228976-.0986841-1.6533982.1080515-2.334.581-.6853315.4691319-1.13393 1.2120548-1.23 2.037-.119151 1.7230792 1.1773983 3.2181346 2.9 3.344.1517833.0162075.3043564.0238862.457.023 1.522 0 4.389-.618 4.6-2.474.222-2.064-3.093-3.365-4.393-3.511zm-.445 3.975c-.6219633-.0091658-1.1234818-.5120146-1.131-1.134.0375981-.2562966.1832208-.4841961.4-.626.2296342-.1586.5029453-.2417816.782-.238.058 0 .116 0 .176.01.9728598.1615195 1.8736613.6148845 2.583 1.3-.8462354.509207-1.8272682.7491468-2.813.688z"/><path id="Shape" d="m11.8 25.828c-.3618723.7483454-.3787389 1.6174399-.0461745 2.3792623.3325644.7618223.9813636 1.3403285 1.7761745 1.5837377.327262.1056989.6690922.1593524 1.013.159.4786607-.000996.9519296-.1010975 1.39-.294 1.2-.523 3.983-2.745 3.152-4.65s-4.357-1.372-5.554-.848c-.7616725.3264576-1.3774386.9205243-1.731 1.67zm2.532.163c.5971734-.2210663 1.2303152-.3289073 1.867-.318.3461927-.0185298.6926067.0321234 1.019.149-.4767581.862525-1.2041786 1.559956-2.086 2-.3088471.1403749-.6581596.1638282-.983.066-.2514519-.0659682-.4588221-.2435015-.5627534-.4817831-.1039314-.2382816-.0929675-.5110457.0297534-.7402169.1484988-.3057666.404477-.54608.719-.675z"/><path id="Shape" d="m19.581 19.951c-.3797263.3890727-.5888066.9133929-.581 1.457.0066158.5368121.2298429 1.0481788.619 1.418 11.4159355 10.8597541 29.3413352 10.8628325 40.761.007.3897344-.3703342.6133198-.8824168.62-1.42.0092142-.5465261-.199897-1.074163-.581-1.466l-18.999-19.347c-.3725151-.38409616-.8849327-.60061067-1.42-.6-.5341892-.0006025-1.0456735.21597516-1.417.6zm20.41-17.951 19.009 19.383c-10.6457657 10.1305304-27.3702432 10.1173269-38-.03z"/><path id="Shape" d="m26.027 20.353c-.4441844-.32-1.0631086-.223356-1.3885918.2168264-.3254831.4401824-.2365209 1.0602574.1995918 1.3911736 8.9970601 6.7065164 21.3309399 6.7065164 30.328 0 .4443131-.3283333.5383333-.9546869.21-1.399s-.9546869-.5383333-1.399-.21c-8.2908906 6.1824492-19.658667 6.182856-27.95.001z"/><path id="Shape" d="m34.582 21.144c.2367922.0655918.4812924.0992232.727.1.5083323-.0023395 1.0070743-.1385795 1.446-.395.7769675-.4629572 1.3384081-1.2153811 1.561-2.092.336-1.276.333-4.876-1.661-5.42-.529957-.1296533-1.089878-.0371761-1.55.256-1.2331415.8810529-2.1377383 2.1476996-2.571 3.6-.5078219 1.6550206.4028842 3.4119542 2.048 3.951zm-.114-3.444c.3011289-.9458054.8760443-1.7810336 1.652-2.4.3766199.9316939.4681538 1.9542276.263 2.938-.0868385.3610137-.3124803.6732473-.628.869-.1933875.1191364-.4266684.1551922-.647.1-.5761102-.2561921-.8556998-.9145382-.64-1.507z"/><path id="Shape" d="m43.248 20.846c.4384292.2567344.9369363.3930045 1.445.395.2460317-.0008429.4908536-.0344723.728-.1 1.6442326-.5394864 2.5546105-2.2953423 2.048-3.95-.4337316-1.4523401-1.3386492-2.7189433-2.572-3.6-.4595046-.2947477-1.0199577-.3876744-1.55-.257-1.994.545-2 4.144-1.66 5.42.2223899.8767152.7838827 1.6292091 1.561 2.092zm.635-5.539c.7759557.6189664 1.3508711 1.4541946 1.652 2.4.2180482.5938907-.0624313 1.255052-.641 1.511-.2199752.0558431-.4532048.0197395-.646-.1-.3155197-.1957527-.5411615-.5079863-.628-.869-.2059056-.9850555-.1143625-2.0090857.263-2.942z"/></g></g></svg>